<?xml version="1.0" encoding="UTF-8" ?>
<!DOCTYPE svg PUBLIC "-//W3C//DTD SVG 1.1//EN" "http://www.w3.org/Graphics/SVG/1.1/DTD/svg11.dtd">
<svg width="300pt" height="300pt" viewBox="0 0 300 300" version="1.1" xmlns="http://www.w3.org/2000/svg">
<g id="#444444ff">
<path fill="#444444" opacity="1.00" d=" M 31.68 29.55 C 40.46 29.47 49.24 29.62 58.03 29.61 C 61.68 29.64 65.44 29.30 68.99 30.44 C 76.14 32.58 81.69 39.50 81.79 47.03 C 81.90 56.84 81.80 66.66 81.82 76.47 C 118.83 76.60 155.84 76.49 192.85 76.53 C 192.84 78.60 192.84 80.68 192.84 82.76 C 155.84 82.75 118.84 82.74 81.84 82.77 C 81.82 108.60 81.83 134.43 81.84 160.26 C 133.95 160.29 186.07 160.27 238.18 160.27 C 241.42 145.00 244.94 129.80 248.04 114.50 C 250.13 114.93 252.23 115.38 254.33 115.80 C 250.69 132.21 247.18 148.66 243.56 165.08 C 241.86 173.17 235.17 179.95 227.11 181.77 C 223.48 182.67 219.72 182.32 216.03 182.37 C 171.33 182.34 126.63 182.39 81.94 182.34 C 77.06 182.11 71.77 182.67 67.97 186.06 C 61.61 191.08 60.35 201.17 65.30 207.60 C 68.54 212.28 74.29 214.38 79.83 214.29 C 84.98 208.75 92.32 205.10 99.97 205.28 C 107.61 205.07 114.86 208.74 120.06 214.17 C 146.48 214.25 172.90 214.15 199.32 214.22 C 204.25 209.24 210.77 205.52 217.91 205.32 C 225.56 204.76 233.34 207.82 238.62 213.38 C 244.85 219.66 247.48 229.23 245.42 237.82 C 244.23 243.43 240.93 248.35 236.82 252.27 C 250.16 252.24 263.49 252.27 276.82 252.25 C 276.82 254.33 276.82 256.42 276.82 258.51 C 195.67 258.50 114.51 258.50 33.35 258.51 C 33.35 256.42 33.35 254.33 33.35 252.25 C 49.80 252.28 66.24 252.23 82.68 252.28 C 77.21 247.31 73.78 240.38 73.24 233.00 C 57.03 232.16 42.63 219.09 40.01 203.11 C 36.94 187.69 45.32 171.29 59.19 164.13 C 59.20 125.76 59.19 87.39 59.20 49.02 C 59.55 42.95 55.10 36.88 48.95 36.10 C 43.21 35.50 37.42 36.01 31.67 35.83 C 31.67 33.74 31.67 31.65 31.68 29.55 M 61.12 35.67 C 63.42 39.37 65.57 43.44 65.40 47.95 C 65.40 85.86 65.40 123.76 65.40 161.67 C 68.74 160.83 72.16 160.35 75.59 160.17 C 75.63 123.09 75.60 86.02 75.61 48.94 C 75.82 45.09 74.26 41.18 71.24 38.73 C 68.50 36.18 64.64 35.94 61.12 35.67 M 45.95 192.98 C 43.45 209.47 57.14 226.06 73.81 226.73 C 74.43 224.64 75.09 222.56 75.81 220.50 C 71.73 219.66 67.61 218.40 64.38 215.66 C 57.69 210.49 54.43 201.30 56.54 193.09 C 58.66 183.42 68.00 175.89 77.95 176.17 C 123.64 176.11 169.33 176.15 215.02 176.15 C 220.04 176.11 225.50 176.68 229.97 173.90 C 232.96 172.27 234.92 169.39 236.72 166.60 C 182.82 166.43 128.92 166.54 75.03 166.54 C 60.56 166.65 47.48 178.61 45.95 192.98 M 93.41 212.65 C 83.97 215.69 77.80 226.36 80.10 236.05 C 81.75 244.16 88.77 250.78 96.96 251.97 C 106.63 253.68 116.74 247.07 119.44 237.70 C 122.16 229.35 118.45 219.54 111.08 214.87 C 105.94 211.47 99.23 210.55 93.41 212.65 M 214.27 212.23 C 205.61 214.47 198.91 222.95 199.22 231.97 C 199.05 240.42 204.97 248.49 212.98 251.08 C 219.50 253.50 227.16 251.90 232.46 247.47 C 238.91 242.25 241.49 232.90 238.64 225.11 C 235.36 215.44 224.15 209.29 214.27 212.23 M 124.18 220.42 C 124.87 222.49 125.51 224.57 126.11 226.67 C 148.48 226.84 170.86 226.70 193.23 226.74 C 193.90 224.62 194.60 222.52 195.33 220.42 C 171.62 220.44 147.90 220.43 124.18 220.42 M 126.69 233.17 C 126.18 240.51 122.69 247.34 117.28 252.27 C 145.57 252.24 173.87 252.26 202.16 252.26 C 196.76 247.37 193.29 240.52 192.85 233.21 C 170.79 233.12 148.74 233.20 126.69 233.17 Z" />
<path fill="#444444" opacity="1.00" d=" M 230.58 32.86 C 241.01 31.00 252.20 33.68 260.46 40.38 C 271.29 48.84 276.69 63.56 273.77 77.01 C 271.64 87.82 264.37 97.42 254.63 102.53 C 244.11 108.12 230.86 108.21 220.28 102.72 C 212.76 98.91 206.63 92.44 203.23 84.72 C 199.74 77.14 199.31 68.37 201.14 60.29 C 204.54 46.45 216.52 35.27 230.58 32.86 M 232.41 38.67 C 221.66 40.31 212.10 48.01 208.19 58.15 C 206.00 63.47 205.74 69.41 206.53 75.07 C 208.23 85.18 215.41 94.10 224.79 98.17 C 231.30 101.07 238.82 101.50 245.67 99.63 C 254.67 97.13 262.35 90.42 265.99 81.81 C 270.82 70.89 268.51 57.38 260.44 48.61 C 253.53 40.87 242.66 37.02 232.41 38.67 Z" />
<path fill="#444444" opacity="1.00" d=" M 231.41 60.56 C 231.44 58.59 231.47 56.63 231.50 54.66 C 234.48 54.66 237.46 54.67 240.44 54.67 C 240.46 64.29 240.45 73.91 240.45 83.53 C 238.37 83.53 236.29 83.52 234.22 83.52 C 234.27 76.20 234.15 68.88 234.30 61.55 C 233.34 61.22 232.37 60.89 231.41 60.56 Z" />
<path fill="#444444" opacity="1.00" d=" M 94.21 102.61 C 95.04 100.70 96.72 99.35 98.03 97.78 C 102.11 100.94 105.62 104.82 109.96 107.62 C 113.59 107.18 115.72 103.58 118.56 101.61 C 122.00 98.32 127.92 98.36 131.32 101.68 C 134.22 103.58 136.29 107.39 139.92 107.78 C 144.98 105.54 147.92 99.30 153.91 98.82 C 159.99 98.61 163.39 104.48 167.99 107.44 C 170.65 108.27 172.30 105.51 174.19 104.17 C 177.56 100.97 181.94 97.08 186.97 99.10 C 191.77 101.42 195.14 105.85 199.25 109.16 C 197.86 110.76 196.46 112.35 195.06 113.93 C 191.69 111.03 188.68 107.66 184.99 105.17 C 182.80 104.55 181.25 106.52 179.71 107.70 C 176.56 110.28 173.59 114.18 169.06 113.85 C 164.49 114.15 161.51 110.20 158.34 107.58 C 156.94 106.50 155.42 104.65 153.43 105.39 C 148.83 108.09 145.76 113.65 140.04 114.20 C 133.97 114.41 130.58 108.56 125.99 105.62 C 125.48 105.60 124.46 105.56 123.95 105.54 C 120.48 107.83 117.86 111.26 114.14 113.18 C 111.18 114.32 107.49 114.08 104.99 111.99 C 101.30 108.98 97.65 105.91 94.21 102.61 Z" />
<path fill="#444444" opacity="1.00" d=" M 93.95 132.04 C 95.30 130.43 96.65 128.82 98.00 127.20 C 101.80 130.31 105.30 133.80 109.27 136.69 C 111.67 137.72 113.47 135.45 115.10 134.09 C 118.14 131.37 121.53 127.89 126.03 128.64 C 131.41 129.52 134.37 134.78 138.87 137.35 C 144.73 136.25 147.56 128.41 154.03 128.38 C 160.48 128.19 163.95 134.73 169.03 137.64 C 174.51 134.74 178.07 127.43 185.06 128.24 C 190.99 128.42 193.44 135.93 199.04 136.40 C 202.44 134.17 205.06 130.96 208.49 128.77 C 211.57 126.83 215.79 127.18 218.60 129.46 C 222.49 132.47 226.00 135.94 229.84 139.03 C 228.50 140.62 227.15 142.22 225.82 143.83 C 221.44 140.46 217.62 136.41 213.02 133.34 C 207.61 136.33 203.92 143.60 196.93 142.64 C 191.93 141.91 189.08 137.09 185.03 134.57 C 184.52 134.57 183.50 134.59 182.98 134.60 C 178.34 137.49 175.04 143.37 169.04 143.45 C 162.50 143.63 159.63 135.84 153.85 134.63 C 149.57 137.03 146.75 141.57 142.08 143.31 C 137.76 144.68 133.76 142.08 130.87 139.12 C 128.78 137.61 126.98 134.68 124.09 135.12 C 120.00 137.18 117.50 141.67 113.02 143.07 C 109.90 144.04 106.53 142.95 104.15 140.84 C 100.72 137.94 97.36 134.96 93.95 132.04 Z" />
<path fill="#444444" opacity="1.00" d=" M 97.33 226.54 C 101.05 224.33 106.35 227.74 105.84 232.05 C 106.14 236.75 99.89 239.56 96.39 236.61 C 92.98 234.25 93.43 228.18 97.33 226.54 Z" />
<path fill="#444444" opacity="1.00" d=" M 217.26 226.35 C 221.10 224.87 225.73 227.77 225.47 232.03 C 225.59 236.94 219.07 239.64 215.56 236.39 C 212.22 233.70 213.18 227.73 217.26 226.35 Z" />
</g>
<g id="#34bbdbff">
<path fill="#34bbdb" opacity="1.00" d=" M 232.41 38.67 C 242.66 37.02 253.53 40.87 260.44 48.61 C 268.51 57.38 270.82 70.89 265.99 81.81 C 262.35 90.42 254.67 97.13 245.67 99.63 C 238.82 101.50 231.30 101.07 224.79 98.17 C 215.41 94.10 208.23 85.18 206.53 75.07 C 205.74 69.41 206.00 63.47 208.19 58.15 C 212.10 48.01 221.66 40.31 232.41 38.67 M 231.41 60.56 C 232.37 60.89 233.34 61.22 234.30 61.55 C 234.15 68.88 234.27 76.20 234.22 83.52 C 236.29 83.52 238.37 83.53 240.45 83.53 C 240.45 73.91 240.46 64.29 240.44 54.67 C 237.46 54.67 234.48 54.66 231.50 54.66 C 231.47 56.63 231.44 58.59 231.41 60.56 Z" />
</g>
<g id="#999999ff">
<path fill="#999999" opacity="1.00" d=" M 93.41 212.65 C 99.23 210.55 105.94 211.47 111.08 214.87 C 118.45 219.54 122.16 229.35 119.44 237.70 C 116.74 247.07 106.63 253.68 96.96 251.97 C 88.77 250.78 81.75 244.16 80.10 236.05 C 77.80 226.36 83.97 215.69 93.41 212.65 M 97.33 226.54 C 93.43 228.18 92.98 234.25 96.39 236.61 C 99.89 239.56 106.14 236.75 105.84 232.05 C 106.35 227.74 101.05 224.33 97.33 226.54 Z" />
<path fill="#999999" opacity="1.00" d=" M 214.27 212.23 C 224.15 209.29 235.36 215.44 238.64 225.11 C 241.49 232.90 238.91 242.25 232.46 247.47 C 227.16 251.90 219.50 253.50 212.98 251.08 C 204.97 248.49 199.05 240.42 199.22 231.97 C 198.91 222.95 205.61 214.47 214.27 212.23 M 217.26 226.35 C 213.18 227.73 212.22 233.70 215.56 236.39 C 219.07 239.64 225.59 236.94 225.47 232.03 C 225.73 227.77 221.10 224.87 217.26 226.35 Z" />
</g>
</svg>
